<mxfile host="app.diagrams.net" modified="2023-09-17T17:26:53.092Z" agent="Mozilla/5.0 (Windows NT 10.0; Win64; x64) AppleWebKit/537.36 (KHTML, like Gecko) Chrome/116.0.0.0 Safari/537.36" etag="aT7ddlXX_N4q_g-nhS25" version="21.7.2" type="device">
  <diagram id="C5RBs43oDa-KdzZeNtuy" name="Page-1">
    <mxGraphModel dx="1134" dy="1820" grid="1" gridSize="10" guides="1" tooltips="1" connect="1" arrows="1" fold="1" page="1" pageScale="1" pageWidth="827" pageHeight="1169" math="0" shadow="0">
      <root>
        <mxCell id="WIyWlLk6GJQsqaUBKTNV-0" />
        <mxCell id="WIyWlLk6GJQsqaUBKTNV-1" parent="WIyWlLk6GJQsqaUBKTNV-0" />
        <mxCell id="1zbxgJXul4EzIz9KHvSg-10" style="edgeStyle=orthogonalEdgeStyle;rounded=0;orthogonalLoop=1;jettySize=auto;html=1;entryX=0;entryY=0.5;entryDx=0;entryDy=0;" edge="1" parent="WIyWlLk6GJQsqaUBKTNV-1" source="1zbxgJXul4EzIz9KHvSg-0" target="1zbxgJXul4EzIz9KHvSg-3">
          <mxGeometry relative="1" as="geometry" />
        </mxCell>
        <mxCell id="1zbxgJXul4EzIz9KHvSg-15" style="edgeStyle=orthogonalEdgeStyle;rounded=0;orthogonalLoop=1;jettySize=auto;html=1;entryX=0.5;entryY=0;entryDx=0;entryDy=0;" edge="1" parent="WIyWlLk6GJQsqaUBKTNV-1" source="1zbxgJXul4EzIz9KHvSg-0" target="1zbxgJXul4EzIz9KHvSg-2">
          <mxGeometry relative="1" as="geometry" />
        </mxCell>
        <mxCell id="1zbxgJXul4EzIz9KHvSg-16" style="edgeStyle=orthogonalEdgeStyle;rounded=0;orthogonalLoop=1;jettySize=auto;html=1;entryX=1;entryY=0.75;entryDx=0;entryDy=0;" edge="1" parent="WIyWlLk6GJQsqaUBKTNV-1" source="1zbxgJXul4EzIz9KHvSg-0" target="1zbxgJXul4EzIz9KHvSg-1">
          <mxGeometry relative="1" as="geometry" />
        </mxCell>
        <mxCell id="1zbxgJXul4EzIz9KHvSg-0" value="Mongo DB&lt;br&gt;" style="rounded=0;whiteSpace=wrap;html=1;" vertex="1" parent="WIyWlLk6GJQsqaUBKTNV-1">
          <mxGeometry x="310" y="330" width="120" height="60" as="geometry" />
        </mxCell>
        <mxCell id="1zbxgJXul4EzIz9KHvSg-17" style="edgeStyle=orthogonalEdgeStyle;rounded=0;orthogonalLoop=1;jettySize=auto;html=1;entryX=0;entryY=1;entryDx=0;entryDy=0;" edge="1" parent="WIyWlLk6GJQsqaUBKTNV-1" source="1zbxgJXul4EzIz9KHvSg-1" target="1zbxgJXul4EzIz9KHvSg-2">
          <mxGeometry relative="1" as="geometry" />
        </mxCell>
        <mxCell id="1zbxgJXul4EzIz9KHvSg-18" value="InterConnected with localhost&lt;br&gt;" style="edgeLabel;html=1;align=center;verticalAlign=middle;resizable=0;points=[];" vertex="1" connectable="0" parent="1zbxgJXul4EzIz9KHvSg-17">
          <mxGeometry x="-0.1846" y="3" relative="1" as="geometry">
            <mxPoint as="offset" />
          </mxGeometry>
        </mxCell>
        <mxCell id="1zbxgJXul4EzIz9KHvSg-1" value="Mongo DB Shell" style="rounded=1;whiteSpace=wrap;html=1;" vertex="1" parent="WIyWlLk6GJQsqaUBKTNV-1">
          <mxGeometry x="130" y="310" width="120" height="60" as="geometry" />
        </mxCell>
        <mxCell id="1zbxgJXul4EzIz9KHvSg-2" value="MongoDB Atlas" style="rounded=1;whiteSpace=wrap;html=1;" vertex="1" parent="WIyWlLk6GJQsqaUBKTNV-1">
          <mxGeometry x="240" y="480" width="120" height="60" as="geometry" />
        </mxCell>
        <mxCell id="1zbxgJXul4EzIz9KHvSg-11" style="edgeStyle=orthogonalEdgeStyle;rounded=0;orthogonalLoop=1;jettySize=auto;html=1;" edge="1" parent="WIyWlLk6GJQsqaUBKTNV-1" source="1zbxgJXul4EzIz9KHvSg-3" target="1zbxgJXul4EzIz9KHvSg-7">
          <mxGeometry relative="1" as="geometry" />
        </mxCell>
        <mxCell id="1zbxgJXul4EzIz9KHvSg-12" style="edgeStyle=orthogonalEdgeStyle;rounded=0;orthogonalLoop=1;jettySize=auto;html=1;entryX=1;entryY=0.5;entryDx=0;entryDy=0;" edge="1" parent="WIyWlLk6GJQsqaUBKTNV-1" source="1zbxgJXul4EzIz9KHvSg-3" target="1zbxgJXul4EzIz9KHvSg-8">
          <mxGeometry relative="1" as="geometry" />
        </mxCell>
        <mxCell id="1zbxgJXul4EzIz9KHvSg-13" style="edgeStyle=orthogonalEdgeStyle;rounded=0;orthogonalLoop=1;jettySize=auto;html=1;entryX=0.5;entryY=1;entryDx=0;entryDy=0;" edge="1" parent="WIyWlLk6GJQsqaUBKTNV-1" source="1zbxgJXul4EzIz9KHvSg-3" target="1zbxgJXul4EzIz9KHvSg-9">
          <mxGeometry relative="1" as="geometry" />
        </mxCell>
        <mxCell id="1zbxgJXul4EzIz9KHvSg-14" style="edgeStyle=orthogonalEdgeStyle;rounded=0;orthogonalLoop=1;jettySize=auto;html=1;" edge="1" parent="WIyWlLk6GJQsqaUBKTNV-1" source="1zbxgJXul4EzIz9KHvSg-3" target="1zbxgJXul4EzIz9KHvSg-4">
          <mxGeometry relative="1" as="geometry" />
        </mxCell>
        <mxCell id="1zbxgJXul4EzIz9KHvSg-3" value="MongoDB Cloud&lt;br&gt;" style="rounded=1;whiteSpace=wrap;html=1;" vertex="1" parent="WIyWlLk6GJQsqaUBKTNV-1">
          <mxGeometry x="470" y="240" width="120" height="60" as="geometry" />
        </mxCell>
        <mxCell id="1zbxgJXul4EzIz9KHvSg-4" value="frame" style="shape=umlFrame;whiteSpace=wrap;html=1;pointerEvents=0;" vertex="1" parent="WIyWlLk6GJQsqaUBKTNV-1">
          <mxGeometry x="490" y="490" width="300" height="200" as="geometry" />
        </mxCell>
        <mxCell id="1zbxgJXul4EzIz9KHvSg-5" value="Mongo &lt;br&gt;Chart" style="whiteSpace=wrap;html=1;" vertex="1" parent="WIyWlLk6GJQsqaUBKTNV-1">
          <mxGeometry x="590" y="520" width="120" height="60" as="geometry" />
        </mxCell>
        <mxCell id="1zbxgJXul4EzIz9KHvSg-7" value="GCP" style="ellipse;whiteSpace=wrap;html=1;" vertex="1" parent="WIyWlLk6GJQsqaUBKTNV-1">
          <mxGeometry x="414" y="-80" width="120" height="80" as="geometry" />
        </mxCell>
        <mxCell id="1zbxgJXul4EzIz9KHvSg-8" value="AWS" style="ellipse;whiteSpace=wrap;html=1;" vertex="1" parent="WIyWlLk6GJQsqaUBKTNV-1">
          <mxGeometry x="540" y="-70" width="120" height="80" as="geometry" />
        </mxCell>
        <mxCell id="1zbxgJXul4EzIz9KHvSg-9" value="AZURE&lt;br&gt;" style="ellipse;whiteSpace=wrap;html=1;" vertex="1" parent="WIyWlLk6GJQsqaUBKTNV-1">
          <mxGeometry x="690" y="-80" width="120" height="80" as="geometry" />
        </mxCell>
        <mxCell id="1zbxgJXul4EzIz9KHvSg-22" style="edgeStyle=orthogonalEdgeStyle;rounded=0;orthogonalLoop=1;jettySize=auto;html=1;entryX=0.371;entryY=-0.017;entryDx=0;entryDy=0;entryPerimeter=0;" edge="1" parent="WIyWlLk6GJQsqaUBKTNV-1" source="1zbxgJXul4EzIz9KHvSg-21" target="1zbxgJXul4EzIz9KHvSg-1">
          <mxGeometry relative="1" as="geometry" />
        </mxCell>
        <mxCell id="1zbxgJXul4EzIz9KHvSg-29" value="IF yes we can use&amp;nbsp;&lt;br&gt;" style="edgeLabel;html=1;align=center;verticalAlign=middle;resizable=0;points=[];" vertex="1" connectable="0" parent="1zbxgJXul4EzIz9KHvSg-22">
          <mxGeometry x="-0.2693" y="-1" relative="1" as="geometry">
            <mxPoint x="1" as="offset" />
          </mxGeometry>
        </mxCell>
        <mxCell id="1zbxgJXul4EzIz9KHvSg-23" style="edgeStyle=orthogonalEdgeStyle;rounded=0;orthogonalLoop=1;jettySize=auto;html=1;entryX=0;entryY=0.25;entryDx=0;entryDy=0;" edge="1" parent="WIyWlLk6GJQsqaUBKTNV-1" source="1zbxgJXul4EzIz9KHvSg-21" target="1zbxgJXul4EzIz9KHvSg-3">
          <mxGeometry relative="1" as="geometry" />
        </mxCell>
        <mxCell id="1zbxgJXul4EzIz9KHvSg-25" style="edgeStyle=orthogonalEdgeStyle;rounded=0;orthogonalLoop=1;jettySize=auto;html=1;entryX=0;entryY=0.5;entryDx=0;entryDy=0;" edge="1" parent="WIyWlLk6GJQsqaUBKTNV-1" source="1zbxgJXul4EzIz9KHvSg-21" target="1zbxgJXul4EzIz9KHvSg-24">
          <mxGeometry relative="1" as="geometry" />
        </mxCell>
        <mxCell id="1zbxgJXul4EzIz9KHvSg-28" value="if not&lt;br&gt;" style="edgeLabel;html=1;align=center;verticalAlign=middle;resizable=0;points=[];" vertex="1" connectable="0" parent="1zbxgJXul4EzIz9KHvSg-25">
          <mxGeometry x="-0.6071" y="2" relative="1" as="geometry">
            <mxPoint as="offset" />
          </mxGeometry>
        </mxCell>
        <mxCell id="1zbxgJXul4EzIz9KHvSg-21" value="If to connect with MongoDb shell we can&amp;nbsp;" style="rhombus;whiteSpace=wrap;html=1;" vertex="1" parent="WIyWlLk6GJQsqaUBKTNV-1">
          <mxGeometry x="10" y="110" width="260" height="150" as="geometry" />
        </mxCell>
        <mxCell id="1zbxgJXul4EzIz9KHvSg-27" style="edgeStyle=orthogonalEdgeStyle;rounded=0;orthogonalLoop=1;jettySize=auto;html=1;entryX=0.386;entryY=1.03;entryDx=0;entryDy=0;entryPerimeter=0;" edge="1" parent="WIyWlLk6GJQsqaUBKTNV-1" source="1zbxgJXul4EzIz9KHvSg-24" target="1zbxgJXul4EzIz9KHvSg-26">
          <mxGeometry relative="1" as="geometry" />
        </mxCell>
        <mxCell id="1zbxgJXul4EzIz9KHvSg-24" value="cmd command will be avaliable in mongodb shell" style="rounded=1;whiteSpace=wrap;html=1;" vertex="1" parent="WIyWlLk6GJQsqaUBKTNV-1">
          <mxGeometry x="170" y="30" width="120" height="60" as="geometry" />
        </mxCell>
        <mxCell id="1zbxgJXul4EzIz9KHvSg-26" value="To use in Cmd&lt;br&gt;" style="ellipse;whiteSpace=wrap;html=1;" vertex="1" parent="WIyWlLk6GJQsqaUBKTNV-1">
          <mxGeometry x="270" y="-100" width="120" height="80" as="geometry" />
        </mxCell>
      </root>
    </mxGraphModel>
  </diagram>
</mxfile>
